<?xml version="1.0" encoding="utf-8"?>
<!-- Generator: Adobe Illustrator 19.2.0, SVG Export Plug-In . SVG Version: 6.00 Build 0)  -->
<svg version="1.1" id="Layer_1" xmlns="http://www.w3.org/2000/svg" xmlns:xlink="http://www.w3.org/1999/xlink" x="0px" y="0px"
	 viewBox="0 0 512 512" style="enable-background:new 0 0 512 512;" xml:space="preserve">
<style type="text/css">
	.st0{fill:#8298A8;stroke:#8298A8;stroke-width:4;stroke-miterlimit:10;}
</style>
<g>
	<g>
		<g>
			<path class="st0" d="M469.8,409.8L469.8,409.8V181.3c0-16.3-13.2-29.5-29.5-29.5h-36c-0.2-0.7-0.3-1.3-0.5-2l-6.3,2h-30.9v-11.9
				l-95.4-47.7l-125.7,47.1v12.5h-34l-3.5-1.1c-0.1,0.4-0.2,0.7-0.3,1.1H71.8c-16.3,0-29.5,13.2-29.5,29.5v228.5H27.5v29.5
				c0,16.3,13.2,29.5,29.5,29.5h398.1c16.3,0,29.5-13.2,29.5-29.5v-29.5H469.8z M278.2,112.1l62.7,31.3l-62.7,23.5V112.1z
				 M278.2,182.7l73.7-27.6v80.6l-73.7-36.9V182.7z M340.8,246.6l-92.2,34.6v-61.7l21.7-8.1L340.8,246.6z M248.7,203.8v-10.1
				l14.7-5.5v10.1L248.7,203.8z M263.4,110.8v61.7l-21.7,8.1l-70.5-35.2L263.4,110.8z M160.2,156.3l73.7,36.9v16.1L160.2,237V156.3
				L160.2,156.3z M233.9,225.1v54.8l-62.7-31.3L233.9,225.1z M240.9,299.9l125.7-47.1V196h29.5c0,7-0.5,14-1.5,20.9l14.6,2.2
				c1.1-7.5,1.7-15.2,1.7-23h14.8v184.3H86.5V196h59v56.2L240.9,299.9z M57,181.3c0-8.1,6.6-14.7,14.7-14.7h32.4
				c-0.4,2.2-0.9,4.5-1.3,6.7l14.6,2.2c0.4-3,1-5.9,1.7-8.9h26.3v14.7H71.8V395h368.6V181.3h-73.7v-14.7h26.3c0.6,2.7,1.1,5.4,1.5,8
				l14.6-2.2c-0.3-1.9-0.7-3.9-1.1-5.8h32.4c8.1,0,14.7,6.6,14.7,14.7v228.5H278.2v14.7h-44.2v-14.7H57V181.3z M469.8,439.3
				L469.8,439.3c0,8.1-6.6,14.7-14.7,14.7H57c-8.1,0-14.7-6.6-14.7-14.7v-14.7h176.9c0,8.1,6.6,14.7,14.7,14.7h44.2
				c8.1,0,14.7-6.6,14.7-14.7h176.9V439.3z"/>
			<path class="st0" d="M168.5,86.7l-9.2-11.5c-6,4.8-11.7,10.1-16.9,15.8l10.8,10C157.9,95.9,163,91.1,168.5,86.7z"/>
			<path class="st0" d="M204.5,65.7L199.1,52c-7.1,2.8-14.1,6.2-20.8,10.1l7.4,12.7C191.7,71.4,198.1,68.3,204.5,65.7z"/>
			<path class="st0" d="M140.1,117.4l-12.2-8.3c-4.3,6.4-8.2,13.1-11.5,20.1l13.3,6.4C132.7,129.2,136.2,123.2,140.1,117.4z"/>
			<path class="st0" d="M395.3,128.3c-3.4-6.9-7.3-13.6-11.6-20l-12.1,8.4c4,5.7,7.5,11.8,10.5,18.1L395.3,128.3z"/>
			<path class="st0" d="M116,196.3l-14.7,0c0,7.7,0.6,15.5,1.7,23l14.6-2.2C116.6,210.3,116,203.3,116,196.3z"/>
			<path class="st0" d="M358.4,100.4l10.8-10.1c-5.2-5.6-11-10.9-17-15.7L343,86.2C348.5,90.5,353.7,95.3,358.4,100.4z"/>
			<path class="st0" d="M333,61.7c-6.7-3.8-13.7-7.2-20.9-10l-5.4,13.7c6.5,2.5,12.8,5.6,18.9,9L333,61.7z"/>
			<path class="st0" d="M290,44.9c-7.5-1.7-15.2-2.8-22.9-3.4l-1,14.7c7,0.5,13.9,1.5,20.7,3L290,44.9z"/>
			<path class="st0" d="M245.2,56.4L244,41.7c-7.7,0.6-15.4,1.8-22.9,3.5l3.3,14.4C231.2,58,238.2,56.9,245.2,56.4z"/>
			<path class="st0" d="M352.6,317l-9.2-11.5c-5.4,4.4-11.3,8.3-17.3,11.8l7.4,12.8C340.2,326.2,346.6,321.8,352.6,317z"/>
			<path class="st0" d="M312.7,340.1l-5.4-13.7c-6.5,2.5-13.2,4.6-20,6.2l3.3,14.4C298.2,345.2,305.6,342.9,312.7,340.1z"/>
			<path class="st0" d="M384,283.2l-12.2-8.3c-3.9,5.8-8.3,11.3-13.1,16.4l10.8,10C374.8,295.6,379.7,289.5,384,283.2z"/>
			<path class="st0" d="M404,241.6l-14.1-4.3c-2,6.6-4.6,13.2-7.6,19.5l13.3,6.4C398.9,256.2,401.8,249,404,241.6z"/>
			<path class="st0" d="M225,332.6c-6.8-1.5-13.5-3.6-20-6.1l-5.4,13.7c7.2,2.8,14.6,5.1,22.1,6.8L225,332.6z"/>
			<path class="st0" d="M267.8,350.4l-1.1-14.7c-6.9,0.5-14,0.5-20.9,0l-1.1,14.7c3.8,0.3,7.6,0.4,11.4,0.4
				C260,350.8,263.9,350.7,267.8,350.4z"/>
			<path class="st0" d="M186.2,317.4c-6-3.5-11.8-7.4-17.3-11.8l-9.2,11.5c6,4.8,12.5,9.2,19.1,13L186.2,317.4z"/>
			<path class="st0" d="M128.3,283.4c4.3,6.3,9.2,12.4,14.4,18l10.8-10c-4.7-5.1-9.1-10.6-13.1-16.3L128.3,283.4z"/>
			<path class="st0" d="M122.3,237.5l-14.1,4.4c2.3,7.4,5.1,14.6,8.5,21.5l13.3-6.4C126.9,250.7,124.3,244.2,122.3,237.5z"/>
		</g>
	</g>
</g>
</svg>
