<?xml version="1.0" encoding="utf-8"?>
<!-- Generator: Adobe Illustrator 19.2.0, SVG Export Plug-In . SVG Version: 6.00 Build 0)  -->
<svg version="1.1" id="Layer_1" xmlns="http://www.w3.org/2000/svg" xmlns:xlink="http://www.w3.org/1999/xlink" x="0px" y="0px"
	 viewBox="0 0 512 512" style="enable-background:new 0 0 512 512;" xml:space="preserve">
<style type="text/css">
	.st0{fill:#8298A8;stroke:#8298A8;stroke-width:7;stroke-miterlimit:10;}
	.st1{fill:#8298A8;stroke:#8298A8;stroke-miterlimit:10;}
</style>
<g>
	<g>
		<g>
			<path class="st0" d="M144.8,207.6c-19.3,24.7-30,55.5-30,86.9v5.9c0,77.7,63.2,141,141,141s141-63.2,141-141v-5.9
				c0-31.3-10.6-62.2-30-86.9l-111-141.8L144.8,207.6z M382,294.5v5.9c0,69.5-56.6,126.1-126.1,126.1s-126.1-56.6-126.1-126.1v-5.9
				c0-28,9.5-55.6,26.8-77.7l99.3-126.9l99.3,126.9C372.4,238.8,382,266.5,382,294.5z"/>
			<path class="st0" d="M450.3,133.2l-12.5,7.9c21.7,34.4,33.2,74,33.2,114.7C471,374.5,374.5,471,255.8,471S40.7,374.5,40.7,255.9
				S137.2,40.7,255.8,40.7c50.8,0,99,17.6,137.6,49.9l-47.8-5.3L344,100l75,8.3V33.3h-14.8v47c-41.5-35.2-93.5-54.4-148.4-54.4
				c-126.8,0-230,103.2-230,230s103.2,230,230,230s230-103.2,230-230C485.8,212.3,473.6,169.9,450.3,133.2z"/>
			<path class="st1" d="M152,300.4c0,57.3,46.6,103.9,103.9,103.9s103.9-46.6,103.9-103.9s-46.6-103.9-103.9-103.9
				S152,243.1,152,300.4z M234.7,214c-7.9,8.6-17,20.3-24.5,34.5c-8.8-3.2-15.1-6.8-18.8-9.3C202.9,227,217.8,218.1,234.7,214z
				 M182,250.8c4.5,3.2,11.8,7.5,22,11.3c-3.7,9.5-6.3,19.9-7.1,30.9h-29.7C168.5,277.4,173.7,263,182,250.8z M182,350
				c-8.3-12.3-13.5-26.7-14.8-42.2h29.7v0c0.8,11,3.4,21.3,7.1,30.9C193.7,342.5,186.4,346.8,182,350z M191.3,361.5
				c3.7-2.6,9.9-6.2,18.8-9.4c7.4,14.2,16.7,26,24.5,34.6C217.8,382.6,202.9,373.7,191.3,361.5z M248.4,379.7
				c-7.2-7.5-16.2-18.4-23.6-31.7c6.8-1.5,14.7-2.5,23.6-2.9V379.7z M248.4,330.3c-11.5,0.5-21.5,2-30.1,4.1
				c-3.3-8.3-5.7-17.2-6.5-26.5h36.7V330.3z M248.4,293h-36.7c0.9-9.4,3.2-18.3,6.6-26.5c8.6,2.1,18.6,3.6,30.1,4.1V293z
				 M248.4,255.7c-8.8-0.4-16.7-1.5-23.5-2.9c7.4-13.2,16.4-24.1,23.5-31.6V255.7z M277,386.8c7.9-8.6,17-20.3,24.5-34.5
				c8.8,3.2,15.1,6.8,18.8,9.3C308.8,373.8,293.8,382.6,277,386.8z M329.7,350c-4.5-3.2-11.8-7.5-22-11.3c3.7-9.5,6.3-19.9,7.1-30.9
				h29.7C343.2,323.3,338,337.8,329.7,350z M329.7,250.8c8.3,12.2,13.5,26.7,14.8,42.2h-29.7v0c-0.8-11-3.4-21.3-7.1-30.9
				C317.9,258.3,325.2,253.9,329.7,250.8z M320.4,239.2c-3.7,2.6-9.9,6.2-18.8,9.4c-7.4-14.2-16.7-26-24.5-34.6
				C293.8,218.1,308.8,227,320.4,239.2z M263.3,221.1c7.2,7.5,16.2,18.4,23.6,31.7c-6.8,1.5-14.7,2.5-23.6,2.9V221.1z M263.3,270.5
				c11.5-0.5,21.5-2,30.1-4.1c3.3,8.3,5.7,17.2,6.5,26.5h-36.7V270.5z M263.3,307.8h36.7c-0.9,9.4-3.2,18.3-6.6,26.5
				c-8.6-2.1-18.6-3.6-30.1-4.1L263.3,307.8L263.3,307.8z M263.3,345.1c8.8,0.4,16.7,1.5,23.5,2.9c-7.4,13.2-16.4,24.1-23.5,31.6
				V345.1L263.3,345.1z"/>
		</g>
	</g>
</g>
</svg>
