<?xml version="1.0" encoding="utf-8"?>
<!-- Generator: Adobe Illustrator 19.2.0, SVG Export Plug-In . SVG Version: 6.00 Build 0)  -->
<svg version="1.1" id="Слой_1" xmlns="http://www.w3.org/2000/svg" xmlns:xlink="http://www.w3.org/1999/xlink" x="0px" y="0px"
	 viewBox="0 0 512 512" style="enable-background:new 0 0 512 512;" xml:space="preserve">
<style type="text/css">
	.st0{fill:#8298A8;}
</style>
<g>
	<path class="st0" d="M453.3,135.3l-196-113.2c-3.2-1.8-7.1-1.8-10.4,0l-196,113.2c-3.2,1.8-5.2,5.3-5.2,9v226.4
		c0,3.7,1.9,7.1,5.2,9l196,113.2c1.6,0.9,3.4,1.4,5.2,1.4c1.8,0,3.6-0.5,5.2-1.4l196-113.2c3.2-1.8,5.2-5.3,5.2-9V144.2
		C458.5,140.5,456.5,137.1,453.3,135.3z M437.8,349.3l-6.7-3.9c-5-2.9-11.3-1.2-14.1,3.8c-2.9,5-1.2,11.3,3.8,14.1l9.5,5.5
		l-167.8,96.9V270.6c0.1,0,0.3,0,0.4,0c3.6,0,7-1.8,9-5.2c1.5-2.6,1.8-5.5,0.9-8l165.1-95.2L437.8,349.3L437.8,349.3z M87.2,349.3
		c-2.9-5-9.2-6.7-14.1-3.8l-6.7,3.9V162.2l165.1,95.2c-0.7,2.6-0.5,5.5,0.9,8c1.9,3.3,5.4,5.2,9,5.2c0.1,0,0.3,0,0.4,0v195.2
		L73.9,368.9l9.5-5.5C88.4,360.6,90.1,354.2,87.2,349.3L87.2,349.3z M252.1,63.7c5.7,0,10.4-4.6,10.4-10.4v-4.4l165,95.2
		l-165.2,95.4c-0.9-4.7-5.2-8.2-10.2-8.2c-5,0-9.2,3.5-10.2,8.2L76.8,144.2l165-95.2v4.4C241.7,59.1,246.4,63.7,252.1,63.7z"/>
	<path class="st0" d="M329.9,311.1l18.5,10.6c1.7,0.9,3.4,1.4,5.2,1.4c3.6,0,7-1.8,9-5.2c2.9-5,1.2-11.3-3.8-14.1l-18.5-10.6
		c-5-2.9-11.3-1.2-14.1,3.8C323.3,301.8,325,308.2,329.9,311.1z"/>
	<path class="st0" d="M284.6,284.8l18.5,10.6c1.7,0.9,3.4,1.4,5.2,1.4c3.6,0,7-1.8,9-5.2c2.9-5,1.2-11.3-3.8-14.1L295,266.9
		c-5-2.9-11.3-1.2-14.1,3.8C278,275.6,279.6,282,284.6,284.8L284.6,284.8z"/>
	<path class="st0" d="M375.4,337.2l18.5,10.6c1.7,0.9,3.4,1.4,5.2,1.4c3.6,0,7-1.8,9-5.2c2.9-5,1.2-11.3-3.8-14.1l-18.5-10.6
		c-5-2.9-11.3-1.2-14.1,3.8C368.7,328.1,370.5,334.4,375.4,337.2z"/>
	<path class="st0" d="M196,296.9c1.8,0,3.5-0.5,5.2-1.4l18.5-10.6c5-2.9,6.7-9.2,3.8-14.1c-2.9-5-9.2-6.7-14.1-3.8l-18.5,10.6
		c-5,2.9-6.7,9.2-3.8,14.1C188.9,295.1,192.3,296.9,196,296.9z"/>
	<path class="st0" d="M105.1,349.2c1.8,0,3.5-0.5,5.2-1.4l18.5-10.6c5-2.9,6.7-9.2,3.8-14.1c-2.9-5-9.2-6.7-14.1-3.8L100,329.9
		c-5,2.9-6.7,9.2-3.8,14.1C98.1,347.4,101.6,349.2,105.1,349.2z"/>
	<path class="st0" d="M150.6,323.1c1.8,0,3.5-0.5,5.2-1.4l18.5-10.6c5-2.9,6.7-9.2,3.8-14.1c-2.9-5-9.2-6.7-14.1-3.8l-18.5,10.6
		c-5,2.9-6.7,9.2-3.8,14.1C143.5,321.2,146.9,323.1,150.6,323.1z"/>
	<path class="st0" d="M241.7,105.8c0,5.7,4.6,10.4,10.4,10.4s10.4-4.6,10.4-10.4V84.5c0-5.7-4.6-10.4-10.4-10.4
		c-5.7,0-10.4,4.6-10.4,10.4V105.8z"/>
	<path class="st0" d="M252.1,126.6c-5.7,0-10.4,4.6-10.4,10.4v21.4c0,5.7,4.6,10.4,10.4,10.4s10.4-4.6,10.4-10.4v-21.4
		C262.4,131.2,257.8,126.6,252.1,126.6z"/>
	<path class="st0" d="M252.1,178.9c-5.7,0-10.4,4.6-10.4,10.4v21.4c0,5.7,4.6,10.4,10.4,10.4s10.4-4.6,10.4-10.4v-21.4
		C262.4,183.5,257.8,178.9,252.1,178.9z"/>
</g>
</svg>
