<?xml version="1.0" encoding="utf-8"?>
<!-- Generator: Adobe Illustrator 19.2.0, SVG Export Plug-In . SVG Version: 6.00 Build 0)  -->
<svg version="1.1" id="Capa_1" xmlns="http://www.w3.org/2000/svg" xmlns:xlink="http://www.w3.org/1999/xlink" x="0px" y="0px"
	 viewBox="0 0 512 512" style="enable-background:new 0 0 512 512;" xml:space="preserve">
<style type="text/css">
	.st0{fill:#8298A8;stroke:#8298A8;stroke-width:7;stroke-miterlimit:10;}
</style>
<path class="st0" d="M429.9,410.1c36.4-41.1,58.6-95,58.6-154.1c0-61.5-24-117.4-63.1-159v0c0,0-0.1-0.1-0.1-0.1
	c-40.7-43.3-97.8-71-161.2-73.2l0,0l-4.5-0.1c-1.2,0-2.3-0.1-3.5-0.1s-2.3,0-3.5,0.1l-4.5,0.1l0,0c-63.5,2.2-120.5,29.9-161.2,73.2
	c0,0-0.1,0.1-0.1,0.1c0,0,0,0,0,0c-39.1,41.6-63.1,97.5-63.1,159c0,59.1,22.2,113.1,58.6,154.1c0,0.1,0,0.2,0.1,0.2
	c0.1,0.2,0.4,0.3,0.5,0.5c40.9,45.8,99.7,75.2,165.2,77.5l0,0l4.5,0.1c1.2,0,2.3,0.1,3.5,0.1s2.3,0,3.5-0.1l4.5-0.1l0,0
	c65.6-2.3,124.4-31.8,165.4-77.6c0.1-0.1,0.3-0.2,0.4-0.3C429.8,410.3,429.8,410.2,429.9,410.1z M39.7,264H136
	c0.9,34,7.5,67,19.4,97.9c-22.8,8.2-44.6,19.3-65,33.1C60.3,359.4,41.6,313.8,39.7,264z M94.7,111.9c19.9,13,41.2,23.4,63.3,31.1
	c-13.6,32.9-21.1,68.4-22,105H39.7C41.7,195.8,62.1,148.3,94.7,111.9z M472.3,248H376c-1-36.6-8.5-72.1-22-105
	c22.2-7.8,43.4-18.2,63.3-31.1C449.9,148.3,470.3,195.8,472.3,248z M248,143.5c-23.2-0.7-45.9-4.1-67.9-10.3
	c16.3-33.3,39.2-63.4,67.9-88.5V143.5z M248,159.5V248h-96c1-34.9,8.3-68.7,21.4-100C197.5,155,222.5,158.8,248,159.5z M264,159.5
	c25.5-0.7,50.5-4.5,74.6-11.5c13.1,31.3,20.4,65.2,21.4,100h-96V159.5z M264,143.5V44.7c28.7,25.1,51.7,55.1,67.9,88.5
	C309.9,139.3,287.2,142.8,264,143.5z M347.5,128.3c-15.4-32.3-36.8-61.7-63.2-86.9c46.9,6.1,89.2,27.4,121.7,58.7
	C387.5,111.8,367.9,121.3,347.5,128.3z M164.5,128.3c-20.4-7-40-16.5-58.5-28.2c32.5-31.3,74.8-52.5,121.7-58.7
	C201.3,66.6,179.9,96,164.5,128.3z M152,264h96v80.5c-26.5,0.7-52.5,4.8-77.5,12.4C159.2,327.5,152.9,296.2,152,264z M248,360.5
	v106.8c-30.7-26.8-54.8-59.4-71.2-95.5C199.7,365,223.6,361.2,248,360.5z M264,467.3V360.5c24.4,0.7,48.2,4.5,71.2,11.2
	C318.9,407.9,294.8,440.5,264,467.3z M264,344.5V264h96c-0.9,32.2-7.2,63.5-18.5,92.8C316.5,349.3,290.5,345.2,264,344.5z M376,264
	h96.2c-1.8,49.8-20.5,95.3-50.6,131.1c-20.4-13.8-42.2-24.9-65-33.1C368.5,331,375.1,298,376,264z M101.2,407.1
	c19-12.6,39.2-22.7,60.3-30.3c15.6,35,38,66.8,66.3,93.8C178.5,464.1,134.3,441,101.2,407.1z M284.2,470.6
	c28.3-27,50.7-58.8,66.3-93.8c21.1,7.6,41.3,17.7,60.3,30.3C377.7,441,333.5,464.1,284.2,470.6z"/>
</svg>
