<?xml version="1.0" encoding="utf-8"?>
<!-- Generator: Adobe Illustrator 19.2.0, SVG Export Plug-In . SVG Version: 6.00 Build 0)  -->
<svg version="1.1" id="Layer_1" xmlns="http://www.w3.org/2000/svg" xmlns:xlink="http://www.w3.org/1999/xlink" x="0px" y="0px"
	 viewBox="0 0 512 512" style="enable-background:new 0 0 512 512;" xml:space="preserve">
<style type="text/css">
	.st0{fill:#8298A8;stroke:#8298A8;stroke-width:5;stroke-miterlimit:10;}
</style>
<g>
	<g>
		<g>
			<path class="st0" d="M440.1,56.5v175.8H504V56.5H440.1z M488,216.3h-32V72.4h32V216.3z"/>
			<path class="st0" d="M360.1,137.3c-5.1-4.6-10.4-8.9-16-12.8v-4.1h-6c-31.1-20.6-68-32-105.9-32h-8v199.8h199.8v-8
				c0-16.2-2.1-32.3-6.2-48h6.2V88.4h-63.9V137.3z M240.3,272.2V104.6c22.6,1,44.6,6.5,65,15.8h-25v111.9h63.9v-87.4
				c5.6,4.6,11,9.5,16,14.8v72.5h41.2c3.7,13,6,26.4,6.6,40H240.3z M328.2,136.4v79.9h-32v-79.9H328.2z M376.1,104.4h32v111.9h-32
				V104.4z"/>
			
				<rect x="62.4" y="282.2" transform="matrix(0.7071 -0.7071 0.7071 0.7071 -172.8789 163.073)" class="st0" width="96.1" height="16"/>
			<path class="st0" d="M104.4,256.3c0-13.2-10.8-24-24-24s-24,10.8-24,24s10.8,24,24,24S104.4,269.5,104.4,256.3z M72.4,256.3
				c0-4.4,3.6-8,8-8c4.4,0,8,3.6,8,8s-3.6,8-8,8C76,264.2,72.4,260.7,72.4,256.3z"/>
			<path class="st0" d="M144.4,296.2c-13.2,0-24,10.8-24,24c0,13.2,10.8,24,24,24s24-10.8,24-24C168.3,307,157.6,296.2,144.4,296.2z
				 M144.4,328.2c-4.4,0-8-3.6-8-8c0-4.4,3.6-8,8-8s8,3.6,8,8C152.4,324.6,148.8,328.2,144.4,328.2z"/>
			<path class="st0" d="M359,419.6c21.6-31.8,33.1-68.8,33.1-107.4v-8H208.3V120.4h-8c-7.9,0-15.9,0.7-24,1.7V8.5H8.5v111.9h100.6
				l15.6,15.6C54.7,166,8.5,235.3,8.5,312.2C8.5,418,94.6,504,200.3,504c46.4,0,90.6-16.8,125.5-47l24.7,24.7
				c4.9,4.9,11.3,7.3,17.6,7.3s12.8-2.4,17.6-7.3c9.7-9.7,9.7-25.5,0-35.3L359,419.6z M115.7,104.4H24.5V24.5h135.9v124.6
				L115.7,104.4z M200.3,488c-96.9,0-175.8-78.9-175.8-175.8c0-72.7,45-137.8,112.5-163.9l39.3,39.3v-49.5c5.3-0.7,10.7-1.3,16-1.6
				v183.6H376c-1.4,31.5-11.2,61.6-28.4,88l-12.7-12.7c0.9-3.6,1.4-7.4,1.4-11.3c0-26.4-21.5-48-48-48s-48,21.5-48,48
				c0,26.4,21.5,48,48,48c3.9,0,7.7-0.5,11.3-1.4l14.9,14.9C282.6,472.9,242.4,488,200.3,488z M320.2,384.1c0,17.6-14.3,32-32,32
				s-32-14.3-32-32c0-17.6,14.3-32,32-32S320.2,366.5,320.2,384.1z M374.5,470.4c-3.5,3.5-9.2,3.5-12.7,0l-46.6-46.6
				c5-3.4,9.3-7.7,12.7-12.7l46.6,46.6C378,461.2,378,466.9,374.5,470.4z"/>
			<rect x="40.5" y="40.5" class="st0" width="103.9" height="16"/>
			<rect x="40.5" y="72.4" class="st0" width="103.9" height="16"/>
			<rect x="280.2" y="376.1" class="st0" width="16" height="16"/>
			<rect x="208.3" y="376.1" class="st0" width="16" height="16"/>
			<rect x="176.3" y="376.1" class="st0" width="16" height="16"/>
			<rect x="144.4" y="376.1" class="st0" width="16" height="16"/>
		</g>
	</g>
</g>
</svg>
