<?xml version="1.0" encoding="utf-8"?>
<!-- Generator: Adobe Illustrator 19.2.0, SVG Export Plug-In . SVG Version: 6.00 Build 0)  -->
<svg version="1.1" id="Capa_1" xmlns="http://www.w3.org/2000/svg" xmlns:xlink="http://www.w3.org/1999/xlink" x="0px" y="0px"
	 viewBox="0 0 512 512" style="enable-background:new 0 0 512 512;" xml:space="preserve">
<style type="text/css">
	.st0{fill:#8298A8;stroke:#8298A8;stroke-width:4;stroke-miterlimit:10;}
</style>
<g>
	<path class="st0" d="M345.6,362.3c-39.9,0-72.4,32.5-72.4,72.4s32.5,72.4,72.4,72.4s72.4-32.5,72.4-72.4S385.5,362.3,345.6,362.3z
		 M345.6,486.5c-28.6,0-51.9-23.3-51.9-51.9c0-28.6,23.3-51.9,51.9-51.9c28.6,0,51.9,23.3,51.9,51.9S374.2,486.5,345.6,486.5z"/>
	<path class="st0" d="M225.5,190.9c2.6,0,5.2-1,7.2-3l61-61c13.1,13.5,31.5,21.9,51.7,21.9c39.9,0,72.4-32.5,72.4-72.4
		S385.5,4,345.6,4s-72.4,32.5-72.4,72.4c0,12.2,3,23.7,8.4,33.8l-63.3,63.3c-4,4-4,10.5,0,14.5C220.3,189.9,222.9,190.9,225.5,190.9
		z M345.6,24.5c28.6,0,51.9,23.3,51.9,51.9s-23.3,51.9-51.9,51.9c-28.6,0-51.9-23.3-51.9-51.9S317,24.5,345.6,24.5z"/>
	<path class="st0" d="M273.9,370.7l-60.3-60.3c15.4-13.3,25.2-32.9,25.2-54.8c0-39.9-32.5-72.4-72.4-72.4s-72.4,32.5-72.4,72.4
		s32.5,72.4,72.4,72.4c10.5,0,20.4-2.3,29.4-6.3l63.6,63.6c2,2,4.6,3,7.2,3s5.2-1,7.2-3C277.9,381.2,277.9,374.7,273.9,370.7z
		 M114.5,255.5c0-28.6,23.3-51.9,51.9-51.9c28.6,0,51.9,23.3,51.9,51.9s-23.3,51.9-51.9,51.9S114.5,284.1,114.5,255.5z"/>
</g>
</svg>
