<?xml version="1.0" encoding="utf-8"?>
<!-- Generator: Adobe Illustrator 19.2.0, SVG Export Plug-In . SVG Version: 6.00 Build 0)  -->
<svg version="1.1" id="Layer_1" xmlns="http://www.w3.org/2000/svg" xmlns:xlink="http://www.w3.org/1999/xlink" x="0px" y="0px"
	 viewBox="0 0 512 512" style="enable-background:new 0 0 512 512;" xml:space="preserve">
<style type="text/css">
	.st0{fill:#8298A8;stroke:#8298A8;stroke-width:3;stroke-miterlimit:10;}
</style>
<g>
	<g>
		<g>
			<path class="st0" d="M331.1,191c-3.5-38.4-35.9-68.5-75.1-68.5s-71.6,30.2-75.1,68.5c-9.9,2.7-17.2,11.7-17.2,22.4v104.9
				c0,12.8,10.4,23.2,23.2,23.2h138.2c12.8,0,23.2-10.4,23.2-23.2V213.4C348.3,202.7,341,193.6,331.1,191z M256,137.9
				c30.5,0,55.7,22.8,59.5,52.3h-17.7c-3.6-19.7-21-34.7-41.7-34.7c-20.8,0-38.1,15-41.7,34.7h-17.7
				C200.3,160.7,225.5,137.9,256,137.9z M281.9,190.2h-51.7c3.3-11.1,13.7-19.3,25.9-19.3C268.2,170.9,278.5,179.1,281.9,190.2z
				 M325.1,326H186.9c-4.3,0-7.7-3.5-7.7-7.7V213.4c0-4.3,3.5-7.7,7.7-7.7h138.2c4.3,0,7.7,3.5,7.7,7.7v104.9l0,0
				C332.8,322.5,329.4,326,325.1,326z"/>
			<path class="st0" d="M256,233.5c-11.6,0-21,9.4-21,21c0,8.8,5.5,16.4,13.2,19.5v28.3h15.5v-28.3c7.7-3.1,13.2-10.6,13.2-19.5
				C277,242.9,267.6,233.5,256,233.5z"/>
			<path class="st0" d="M408.6,8H103.4C62.8,8,29.7,41.1,29.7,81.7v162.8c0,31.2,8.7,63.9,25.7,97.2c13.6,26.5,32.7,53.4,55.2,77.8
				c20.9,22.6,43.9,42.2,66.6,56.9c28.6,18.4,55,27.7,78.7,27.7c62.3,0,127-64.7,145.3-84.6c22.5-24.4,41.6-51.3,55.2-77.8
				c17.1-33.3,25.7-66,25.7-97.2V81.7C482.3,41.1,449.2,8,408.6,8z M466.8,244.5L466.8,244.5c0,28.7-8.1,59-24,90.1
				c-13,25.3-31.2,51-52.8,74.4c-9.4,10.1-28.7,29.7-53.2,47.2c-30,21.5-57.2,32.4-80.8,32.4c-20.6,0-44.3-8.5-70.3-25.2
				C164.1,449.4,142,430.6,122,409c-21.6-23.4-39.9-49.1-52.8-74.4c-15.9-31.1-24-61.4-24-90.1V81.7c0-32.1,26.1-58.2,58.2-58.2
				h305.2c32.1,0,58.2,26.1,58.2,58.2L466.8,244.5L466.8,244.5z"/>
			<path class="st0" d="M408.6,58.9H103.4c-12.6,0-22.8,10.2-22.8,22.8v162.8c0,42.9,24.6,94.1,67.4,140.4
				c37.7,40.8,81.1,68.2,108,68.2c26.8,0,70.2-27.4,108-68.2c42.8-46.3,67.4-97.5,67.4-140.4V81.7C431.4,69.1,421.2,58.9,408.6,58.9
				z M408.6,74.4c4,0,7.3,3.3,7.3,7.3v47.9c-28.8-3.5-51.7-26.4-55.2-55.2L408.6,74.4L408.6,74.4z M96.1,81.7c0-4,3.3-7.3,7.3-7.3
				h47.9c-3.5,28.8-26.4,51.7-55.2,55.2C96.1,129.6,96.1,81.7,96.1,81.7z M256,437.7c-10.5,0-25.3-6.1-41.5-16.3
				c11.5-9.9,26.1-15.5,41.5-15.5s30,5.6,41.5,15.5C281.3,431.6,266.5,437.7,256,437.7z M415.9,244.5c0,39.1-23.1,86.4-63.3,129.9
				c-13.5,14.6-28,27.6-42.1,37.9c-14.6-14-34.1-21.9-54.5-21.9c-20.4,0-39.9,7.9-54.5,21.9c-14-10.4-28.6-23.3-42.1-37.9
				c-40.2-43.5-63.3-90.9-63.3-129.9v-99.3c37.4-3.7,67.2-33.5,70.8-70.8h178.2c3.7,37.4,33.5,67.2,70.8,70.8L415.9,244.5
				L415.9,244.5z"/>
		</g>
	</g>
</g>
</svg>
