<?xml version="1.0" encoding="utf-8"?>
<!-- Generator: Adobe Illustrator 19.2.0, SVG Export Plug-In . SVG Version: 6.00 Build 0)  -->
<svg version="1.1" id="Capa_1" xmlns="http://www.w3.org/2000/svg" xmlns:xlink="http://www.w3.org/1999/xlink" x="0px" y="0px"
	 viewBox="0 0 512 512" style="enable-background:new 0 0 512 512;" xml:space="preserve">
<style type="text/css">
	.st0{fill:#8298A8;stroke:#8298A8;stroke-width:5;stroke-miterlimit:10;}
</style>
<path class="st0" d="M356.5,26.7c-37.5,0-72.8,13.6-100.5,38.5c-27.7-24.9-63-38.5-100.5-38.5C72.5,26.7,5,94.2,5,177.2
	c0,52.5,28.5,115,80.2,176.1c47.6,56.2,108.6,104,167.4,131.3c1.1,0.5,2.3,0.8,3.4,0.8c1.2,0,2.3-0.3,3.4-0.8
	c58.8-27.3,119.8-75.1,167.4-131.3c51.7-61.1,80.2-123.6,80.2-176.1C507,94.2,439.5,26.7,356.5,26.7z M155.5,42.9
	c35.8,0,69.4,13.9,94.8,39.2c3.2,3.2,8.3,3.2,11.5,0c25.3-25.3,59-39.2,94.8-39.2c74,0,134.2,60.2,134.2,134.2
	c0,18-3.7,37.4-10.9,57.7H377.4c-3.8,0-7.1,2.6-7.9,6.4l-9.6,43.4l-26.6-112.9c-0.9-3.7-4.1-6.2-7.9-6.3c0,0,0,0-0.1,0
	c-3.7,0-7,2.5-7.9,6.2l-15.8,63.2H204c-3.8,0-7.1,2.6-7.9,6.4l-9.6,43.4l-26.6-112.9c-0.9-3.7-4.1-6.2-7.9-6.3c0,0,0,0-0.1,0
	c-3.7,0-7,2.5-7.9,6.2l-15.8,63.2h-96c-7.2-20.3-10.9-39.7-10.9-57.7C21.3,103.2,81.5,42.9,155.5,42.9z M414.4,342.7
	C369.9,395.3,311,441.9,256,468.2c-55-26.3-113.9-72.9-158.4-125.5c-26.2-30.9-46.1-62-59-91.6h96c3.7,0,7-2.5,7.9-6.2l9.2-36.9
	l27,114.8c0.9,3.7,4.1,6.3,7.9,6.3c0,0,0,0,0.1,0c3.8,0,7.1-2.7,7.9-6.4l15.9-71.7H308c3.7,0,7-2.5,7.9-6.2l9.2-36.9l27,114.8
	c0.9,3.7,4.1,6.3,7.9,6.3c0,0,0,0,0.1,0c3.8,0,7.1-2.7,7.9-6.4l15.9-71.7h89.4C460.5,280.8,440.6,311.8,414.4,342.7z"/>
</svg>
