<?xml version="1.0" encoding="utf-8"?>
<!-- Generator: Adobe Illustrator 19.2.0, SVG Export Plug-In . SVG Version: 6.00 Build 0)  -->
<svg version="1.1" id="Layer_1" xmlns="http://www.w3.org/2000/svg" xmlns:xlink="http://www.w3.org/1999/xlink" x="0px" y="0px"
	 viewBox="0 0 512 512" style="enable-background:new 0 0 512 512;" xml:space="preserve">
<style type="text/css">
	.st0{fill:#8298A8;stroke:#8298A8;stroke-width:4;stroke-miterlimit:10;}
</style>
<g>
	<g>
		<g>
			<path class="st0" d="M467,152.1h-55.9v-32H299.2c0-23.7-17.3-43.4-40-47.2V8.3h-16v64.7c-22.6,3.8-40,23.5-40,47.2H91.4v32h-40
				c-22,0-40,17.9-40,40v271.7c0,22,17.9,40,40,40H467c22,0,40-17.9,40-40V192.1C507,170,489.1,152.1,467,152.1z M251.3,88.2
				c17.6,0,32,14.3,32,32s-14.3,32-32,32s-32-14.3-32-32S233.6,88.2,251.3,88.2z M243.3,248v24h-41.4l30.3-107.9
				c5.8,2.5,12.3,4,19.1,4s13.2-1.4,19.1-4L300.7,272h-41.4v-24H243.3z M107.4,136.1h98.7c2.5,7.2,6.7,13.5,12.1,18.7l-70.6,250.9
				l15.4,4.3l34.3-122h45.9v24h16v-24h45.9l34.3,122l15.4-4.3l-70.6-250.9c5.4-5.1,9.6-11.5,12.1-18.7h98.7v303.7H107.4V136.1z
				 M59.5,487.8h-8c-13.2,0-24-10.8-24-24V192.1c0-13.2,10.8-24,24-24h8V487.8z M427.1,487.8H75.4V168.1h16v287.7h319.7V168.1h16
				V487.8z M491,463.8c0,13.2-10.8,24-24,24h-24V168.1h24c13.2,0,24,10.8,24,24V463.8z"/>
			<rect x="459" y="296" class="st0" width="16" height="63.9"/>
			<rect x="363.1" y="216" class="st0" width="16" height="16"/>
			<rect x="331.2" y="216" class="st0" width="16" height="16"/>
			<rect x="155.4" y="216" class="st0" width="16" height="16"/>
			<rect x="123.4" y="216" class="st0" width="16" height="16"/>
		</g>
	</g>
</g>
</svg>
