<?xml version="1.0" encoding="utf-8"?>
<!-- Generator: Adobe Illustrator 19.2.0, SVG Export Plug-In . SVG Version: 6.00 Build 0)  -->
<svg version="1.1" id="Слой_1" xmlns="http://www.w3.org/2000/svg" xmlns:xlink="http://www.w3.org/1999/xlink" x="0px" y="0px"
	 viewBox="0 0 512 512" style="enable-background:new 0 0 512 512;" xml:space="preserve">
<style type="text/css">
	.st0{fill:#8298A8;stroke:#8298A8;stroke-width:4;stroke-miterlimit:10;}
</style>
<g>
	<path class="st0" d="M507,252.3c-22.2-46.9-56.9-86.6-100.6-114.8c-44.8-29-96.9-44.3-150.5-44.3s-105.6,15.3-150.5,44.3
		C61.8,165.7,27,205.4,4.8,252.3c-1.1,2.4-1.1,5.1,0,7.5c22.2,46.9,56.9,86.6,100.6,114.8c44.8,29,96.9,44.3,150.5,44.3
		s105.6-15.3,150.5-44.3c43.7-28.2,78.4-67.9,100.6-114.8C508.1,257.4,508.1,254.6,507,252.3L507,252.3z M396.9,359.9
		c-42,27.1-90.7,41.5-141,41.5s-99-14.4-141-41.5C75.2,334.2,43.3,298.3,22.4,256c20.8-42.3,52.7-78.2,92.5-103.9
		c42-27.1,90.7-41.5,141-41.5s99,14.4,141,41.5c39.8,25.7,71.7,61.6,92.5,103.9C468.6,298.3,436.7,334.2,396.9,359.9z"/>
	<path class="st0" d="M255.9,126.1C184.3,126.1,126,184.3,126,256s58.3,129.9,129.9,129.9S385.9,327.7,385.9,256
		S327.6,126.1,255.9,126.1z M255.9,368.5c-62,0-112.5-50.5-112.5-112.5s50.5-112.5,112.5-112.5S368.4,194,368.4,256
		S317.9,368.5,255.9,368.5z"/>
	<path class="st0" d="M255.9,163.8c-50.8,0-92.2,41.3-92.2,92.2s41.4,92.2,92.2,92.2s92.2-41.3,92.2-92.2S306.7,163.8,255.9,163.8z
		 M255.9,330.7c-40.5,0-73.5-32.4-74.7-72.6h27.4l22,22c-1.3,2.9-2,6.1-2,9.5c0,12.8,10.4,23.3,23.3,23.3s23.3-10.4,23.3-23.3
		s-10.4-23.3-23.3-23.3c-3.1,0-6,0.6-8.7,1.7l-24.8-24.8c-1.6-1.6-3.9-2.6-6.2-2.6h-29.4c7.1-33.9,37.2-59.4,73.1-59.4
		c31.2,0,58,19.3,69.2,46.5h-29c-3.5-8.5-11.8-14.6-21.6-14.6c-12.8,0-23.3,10.4-23.3,23.3c0,12.8,10.4,23.3,23.3,23.3
		c9.8,0,18.1-6,21.6-14.6h33.7c0.5,3.5,0.8,7.1,0.8,10.7C330.6,297.2,297.1,330.7,255.9,330.7z M251.8,283.7c3.2,0,5.8,2.6,5.8,5.8
		c0,3.2-2.6,5.8-5.8,5.8s-5.8-2.6-5.8-5.8C246,286.3,248.6,283.7,251.8,283.7z M280.4,236.6c0,3.2-2.6,5.8-5.8,5.8
		c-3.2,0-5.8-2.6-5.8-5.8s2.6-5.8,5.8-5.8C277.8,230.7,280.4,233.4,280.4,236.6z"/>
</g>
</svg>
