<?xml version="1.0" encoding="utf-8"?>
<!-- Generator: Adobe Illustrator 19.2.0, SVG Export Plug-In . SVG Version: 6.00 Build 0)  -->
<svg version="1.1" id="Capa_1" xmlns="http://www.w3.org/2000/svg" xmlns:xlink="http://www.w3.org/1999/xlink" x="0px" y="0px"
	 viewBox="0 0 512 512" style="enable-background:new 0 0 512 512;" xml:space="preserve">
<style type="text/css">
	.st0{fill:#8298A8;}
	.st1{fill:#8298A8;stroke:#8298A8;stroke-width:7;stroke-miterlimit:10;}
</style>
<g>
	<path class="st0" d="M99.6,437.1c0,2.8,2.3,5.1,5.1,5.1h297.7c2.8,0,5.1-2.3,5.1-5.1s-2.3-5.1-5.1-5.1H104.7
		C101.9,432.1,99.6,434.3,99.6,437.1z"/>
	<path class="st0" d="M402.3,450.8H104.7c-2.8,0-5.1,2.3-5.1,5.1s2.3,5.1,5.1,5.1h297.7c2.8,0,5.1-2.3,5.1-5.1
		S405.1,450.8,402.3,450.8z"/>
	<path class="st1" d="M451.5,9H100.9C75.7,9,55.2,29.5,55.2,54.6v390.9c0,43.1,29.7,58.4,55.2,58.4h341c2.8,0,5.1-2.3,5.1-5.1V14.1
		C456.5,11.3,454.3,9,451.5,9z M110.5,493.9c-7.5,0-45.1-2.3-45.1-48.3v-391c0-19.6,15.9-35.5,35.5-35.5h4.5v316.1
		c0,2.8,2.3,5.1,5.1,5.1s5.1-2.3,5.1-5.1V19.1h330.9v370.5h-331V374c0-2.8-2.3-5.1-5.1-5.1s-5.1,2.3-5.1,5.1v15.6h-1.7
		c-7.7,0-16.5,3.2-24.7,9c-2.3,1.6-2.8,4.8-1.2,7c1,1.4,2.5,2.1,4.1,2.1c1,0,2-0.3,2.9-0.9c6.5-4.6,13.2-7.1,18.8-7.1h342.7v10.5
		h-21h-21.6H112.2c-19.5,0-35.3,15.9-35.3,35.3c0,19.5,15.9,35.3,35.3,35.3h313.2c2.8,0,5.1-2.3,5.1-5.1v-55.5h16v73.6L110.5,493.9
		L110.5,493.9z M403.8,420.3h16.6v50.5H112.2c-13.9,0-25.2-11.3-25.2-25.2s11.3-25.2,25.2-25.2L403.8,420.3L403.8,420.3z"/>
	<path class="st1" d="M221.3,135h7.1c0.4,0,1.5,1.1,1.7,3.2l0.2,2.5c2,26.3,3.9,51.1,32.3,54v38.2h-7.3c-2.8,0-5.1,2.3-5.1,5.1
		s2.3,5.1,5.1,5.1H280c2.8,0,5.1-2.3,5.1-5.1s-2.3-5.1-5.1-5.1h-7.4v-38.1c29.6-2.2,31.5-27.2,33.5-53.6l0.2-3
		c0.2-2.1,1.2-3.2,1.7-3.2h7.1c2.8,0,5.1-2.3,5.1-5.1s-2.3-5.1-5.1-5.1H308c-6.1,0-11.2,5.4-11.7,12.5l-0.2,3
		c-2.1,28-4.2,42.4-23.4,44.2V135h7.4c2.8,0,5.1-2.3,5.1-5.1s-2.3-5.1-5.1-5.1h-11.7c-0.2,0-0.5-0.1-0.7-0.1s-0.5,0-0.7,0.1h-11.6
		c-2.8,0-5.1,2.3-5.1,5.1c0,2.8,2.3,5.1,5.1,5.1h7.3v49.5c-18.1-2.3-20.1-16.9-22.3-44.6l-0.2-2.5c-0.6-7.1-5.6-12.5-11.7-12.5h-7.1
		c-2.8,0-5.1,2.3-5.1,5.1C216.2,132.8,218.5,135,221.3,135z"/>
	<path class="st1" d="M189.2,337.3c0,2.8,2.3,5.1,5.1,5.1H292c1.5,0,2.9-0.6,3.8-1.8c1-1.1,1.4-2.6,1.2-4.1l-8.3-54.2h62.7
		c11.1,0,20.2-9.1,20.2-20.2v-40.4h22.8c1.8,0,3.4-0.9,4.3-2.5c0.9-1.5,0.9-3.4,0.1-5l-25.6-47.1c-4.5-55.1-50.7-97.6-106-97.6
		c-0.4,0-0.8,0-1.2,0c-57.8,0.6-105,48.2-105.2,106.1c-0.1,27.1,10,52.8,28.4,72.6V337.3L189.2,337.3z M266.1,79.7
		c0.4,0,0.7,0,1.1,0c50.4,0,92.5,39.1,96.1,89.4c0.1,0.9,0.3,1.7,0.8,2.4l21.8,40.2h-19.3c-2.8,0-5.1,2.3-5.1,5.1v45.5
		c0,5.6-4.5,10.1-10.1,10.1h-84.2c-13.7,0-26.9-2.8-39.2-8.3c-2.5-1.1-5.5,0-6.7,2.6c-1.1,2.5,0,5.5,2.6,6.7
		c13.7,6.1,28.3,9.2,43.4,9.2h11.2l7.7,49.9h-86.8v-86c0-0.2,0-0.4-0.1-0.6c0-0.1,0-0.2,0-0.4s-0.1-0.4-0.2-0.6
		c0-0.1-0.1-0.2-0.1-0.3c-0.1-0.2-0.2-0.4-0.3-0.6c0-0.1-0.1-0.2-0.1-0.2c-0.2-0.2-0.3-0.5-0.5-0.7c0,0,0-0.1-0.1-0.1l0,0l0,0
		c-17.4-18.1-26.9-41.9-26.9-67C171,123.4,213.7,80.3,266.1,79.7z"/>
</g>
</svg>
