<?xml version="1.0" encoding="utf-8"?>
<!-- Generator: Adobe Illustrator 19.2.0, SVG Export Plug-In . SVG Version: 6.00 Build 0)  -->
<svg version="1.1" id="Слой_1" xmlns="http://www.w3.org/2000/svg" xmlns:xlink="http://www.w3.org/1999/xlink" x="0px" y="0px"
	 viewBox="0 0 512 512" style="enable-background:new 0 0 512 512;" xml:space="preserve">
<style type="text/css">
	.st0{fill:#8298A8;stroke:#8298A8;stroke-width:3;stroke-miterlimit:10;}
</style>
<g>
	<path class="st0" d="M256,393.1c15.8,0,28.6-12.8,28.6-28.6s-12.8-28.6-28.6-28.6c-15.8,0-28.6,12.8-28.6,28.6
		S240.2,393.1,256,393.1z M256,354.9c5.2,0,9.5,4.3,9.5,9.5c0,5.2-4.3,9.5-9.5,9.5s-9.5-4.3-9.5-9.5
		C246.5,359.2,250.8,354.9,256,354.9z"/>
	<path class="st0" d="M499.4,211H304.6v-40.6l24-24c3.2,1.4,6.7,2.2,10.4,2.2c14.1,0,25.5-11.4,25.5-25.5S353.1,97.6,339,97.6
		s-25.5,11.4-25.5,25.5c0,3.4,0.7,6.6,1.9,9.5l-27.1,27.1c-1.8,1.8-2.8,4.2-2.8,6.8V211h-19.9V54.3c9.3-3.8,15.9-12.9,15.9-23.6
		c0-14.1-11.4-25.5-25.5-25.5c-14.1,0-25.5,11.4-25.5,25.5c0,10.7,6.6,19.8,15.9,23.6V211h-19.9v-78.1c0-2.5-1-5-2.8-6.8L196.6,99
		c1.2-2.9,1.9-6.1,1.9-9.5C198.5,75.5,187,64,173,64c-14.1,0-25.5,11.4-25.5,25.5S158.9,115,173,115c3.7,0,7.2-0.8,10.4-2.2l24,24
		V211H12.6c-5.3,0-9.6,4.3-9.6,9.6v53c0,17.2,14,31.2,31.2,31.2h10.5c5,112.2,97.9,201.9,211.3,201.9S462.3,417,467.3,304.8h10.5
		c17.2,0,31.2-14,31.2-31.2v-53C509,215.3,504.7,211,499.4,211L499.4,211z M339,116.7c3.5,0,6.4,2.9,6.4,6.4s-2.9,6.4-6.4,6.4
		s-6.4-2.9-6.4-6.4S335.5,116.7,339,116.7z M256,24.3c3.5,0,6.4,2.9,6.4,6.4s-2.9,6.4-6.4,6.4c-3.5,0-6.4-2.9-6.4-6.4
		S252.5,24.3,256,24.3z M166.6,89.5c0-3.5,2.9-6.4,6.4-6.4s6.4,2.9,6.4,6.4c0,3.5-2.9,6.4-6.4,6.4S166.6,93.1,166.6,89.5z
		 M256,487.7c-102.9,0-187.1-81.2-192.1-182.8h131.4v107.4c0,17,13.9,30.9,30.9,30.9h59.7c17,0,30.9-13.9,30.9-30.9V304.8h131.4
		C443.1,406.5,358.9,487.7,256,487.7L256,487.7z M214.4,304.8h83.2v107.4c0,6.5-5.3,11.8-11.8,11.8h-59.7c-6.5,0-11.8-5.3-11.8-11.8
		L214.4,304.8L214.4,304.8z M489.9,273.6c0,6.7-5.4,12.1-12.1,12.1H34.2c-6.7,0-12.1-5.4-12.1-12.1v-43.4h467.8V273.6z"/>
</g>
</svg>
